# xmcd
#
# Track frame offsets:
#	150
#	24634
#	50862
#	70581
#	75167
#	99053
#	101524
#	136915
#	165917
#	209699
#	244671
#	259774
#
# Disc length: 3868 seconds
# Revision: 0
# Processed by: cddbd v1.5.2PL0 Copyright (c) Steve Scherf et al.
# Submitted via: dBpowerAMP V12.0
#
DISCID=920f1a0c
DTITLE=IAN SIEGAL - ONE NIGHT IN AMSTERDAM
DYEAR=2015
DGENRE=Blues
TTITLE0=I Am The Train
TTITLE1=Brandy Balloon
TTITLE2=Kingdom Come
TTITLE3=Introduction (one)
TTITLE4=Writing on the Wall
TTITLE5=Introduction (two)
TTITLE6=Temporary
TTITLE7=Early Grace
TTITLE8=Gallo Del Cielo
TTITLE9=Queen of the Junior Prom
TTITLE10=Love Hurts
TTITLE11=Please Don't Fail Me
EXTD=
EXTT0=
EXTT1=
EXTT2=
EXTT3=
EXTT4=
EXTT5=
EXTT6=
EXTT7=
EXTT8=
EXTT9=
EXTT10=
EXTT11=
PLAYORDER=
